<svg width="160mm" height="110mm" version="1.1" viewBox="0 0 160 110" xmlns="http://www.w3.org/2000/svg"><path d="m19.6.847c-1.25.461-2.9 1.78-3.75 3.03l-1.51 2.24v81.7l-7.31 7.31c-6.78 6.85-7.31 7.5-6.91 9.28.263 1.12 1.19 2.7 2.11 3.56l1.71 1.58h152l1.71-1.58c.921-.857 1.84-2.44 2.11-3.56.396-1.78-.131-2.44-6.91-9.28l-7.31-7.31-.132-41.6-.198-41.5-1.58-1.71c-.921-.921-2.7-1.97-3.95-2.37-3.62-.988-118-.79-121 .198zm119 46.9v40.2h-117l-.198-39.5c-.0654-21.7 0-39.9.198-40.3.198-.657 12.2-.79 58.4-.657l58.1.198zm-40.8 51.1c1.65 1.51 2.76 2.96 2.57 3.29-.461.79-39.6.79-40 0-.198-.329.921-1.78 2.57-3.29l2.96-2.7h29z" stroke-width=".0164"/><path d="m77 23.4c-7.88 1.02-14.5 5.53-18.5 12.5-2.98 5.31-3.81 12.1-2.19 18.2 2.18 8.2 8.66 14.8 16.9 17.1 2.43.701 3.85.879 6.79.879 2.94 0 4.36-.178 6.79-.879 8.09-2.33 14.4-8.66 16.7-16.7.701-2.43.879-3.85.879-6.79 0-2.82-.156-4.14-.768-6.43-1.26-4.7-4.1-9.15-7.85-12.3-3.41-2.86-7.27-4.65-11.7-5.44-1.71-.3-5.34-.39-7.07-.167zm5.5 5.19c.946 1.58 1.71 3.13 2.4 4.81.556 1.36 1.59 4.43 1.52 4.51-.0224.022-2.93.022-6.45.011l-6.42-.0334.545-1.61c.935-2.8 2.3-5.69 3.81-8.02l.568-.879h3.31zm-9.95.69c-.935 1.73-2.48 5.73-3.06 7.9l-.201.757h-3.54c-1.96 0-3.55-.0444-3.55-.0888s.312-.556.679-1.13c1.78-2.75 4.32-5.14 7.26-6.83.646-.367 2.41-1.17 2.6-1.18.0669 0-.011.256-.189.579zm16.5.167c2.52 1.24 5.11 3.33 6.99 5.65.489.612 1.81 2.62 1.81 2.75 0 .0444-1.59.0888-3.55.0888h-3.54l-.3-1.12c-.601-2.25-1.54-4.77-2.53-6.87-.3-.646-.545-1.18-.545-1.2 0-.0663.601.19 1.66.701zm-20.6 13.4c-.278 2.9-.312 3.75-.245 6.15.0334 1.44.111 2.99.167 3.45.0559.456.0778.868.0559.912-.0334.0559-1.83.0888-4 .0888h-3.94l-.122-.445c-.0559-.245-.167-.646-.222-.879-.435-1.68-.568-5.05-.279-7.08.145-1.06.423-2.39.568-2.77.0559-.156.545-.178 4.08-.178h4.01zm19.1.556c.3 2.57.145 8.74-.245 9.79l-.1.256h-7.22c-4.45 0-7.26-.0444-7.3-.111-.0334-.0559-.145-.846-.234-1.75-.267-2.43-.145-7 .234-9.14l.0668-.356h14.7zm12.2-.835c.879 3.29.879 7.12 0 10.4l-.134.467-4.08-.0224c-4.01-.0334-4.08-.0334-4.06-.256.0224-.123.0888-.679.145-1.22.289-2.41.245-7.37-.0778-9.44l-.0668-.412h8.15zm-30.4 15.6c.478 2.04 1.58 5.12 2.6 7.27.334.701.556 1.28.501 1.28-.289 0-2.63-1.25-3.79-2.03-1.39-.935-3.34-2.7-4.43-4.04-.668-.813-2-2.79-2-2.96 0-.0559 1.52-.1 3.49-.1h3.49zm16.7.334c-.89 2.92-2.21 5.79-4 8.66l-.612 1h-1.59c-1.1 0-1.64-.0444-1.76-.145-.245-.201-1.18-1.8-2.01-3.47-1.06-2.11-1.86-4.21-2.59-6.77-.0559-.178.3-.189 6.4-.189h6.44zm11.8-.824c0 .167-1.36 2.18-2 2.96-1.51 1.86-3.94 3.9-6.04 5.06-.779.434-2.65 1.26-2.7 1.2-.0224-.0224.323-.813.779-1.76.979-2.04 1.68-3.88 2.29-5.95.245-.835.445-1.55.445-1.57 0-.011 1.62-.0334 3.62-.0334 1.99 0 3.62.0444 3.62.0888z" stroke-width=".00499"/></svg>
