<svg width="4.58in" height="6.87in" version="1.1" viewBox="0 0 116 174" xmlns="http://www.w3.org/2000/svg"><g transform="translate(59.5 29.4)"><path d="m-4.56 31.6c-8.51 1.11-15.7 5.97-19.9 13.5-3.22 5.73-4.11 13.1-2.37 19.7 2.36 8.86 9.35 16 18.2 18.5 2.62.757 4.16.949 7.33.949 3.17 0 4.71-.192 7.33-.95 8.74-2.51 15.6-9.35 18.1-18.1.758-2.62.95-4.16.95-7.33 0-3.04-.168-4.47-.829-6.95-1.36-5.07-4.42-9.88-8.47-13.3-3.68-3.09-7.85-5.02-12.7-5.88-1.85-.324-5.77-.421-7.63-.18zm5.94 5.6c1.02 1.71 1.85 3.38 2.6 5.19.601 1.47 1.72 4.78 1.65 4.87-.0242.0238-3.16.0238-6.97.0119l-6.94-.0361.589-1.74c1.01-3.03 2.49-6.14 4.11-8.67l.613-.949h3.57zm-10.7.745c-1.01 1.86-2.68 6.19-3.31 8.53l-.217.817h-3.82c-2.12 0-3.83-.048-3.83-.0959s.337-.601.733-1.23c1.92-2.97 4.66-5.55 7.84-7.38.697-.397 2.61-1.26 2.81-1.27.0723 0-.0119.276-.204.625zm17.8.18c2.72 1.33 5.52 3.59 7.55 6.11.529.661 1.96 2.83 1.96 2.97 0 .048-1.72.0959-3.83.0959h-3.82l-.324-1.21c-.649-2.43-1.66-5.16-2.73-7.42-.324-.697-.589-1.27-.589-1.3 0-.0716.649.205 1.79.758zm-22.3 14.4c-.301 3.14-.337 4.05-.265 6.65.0361 1.55.12 3.23.181 3.73.0604.493.084.938.0604.986-.0361.0604-1.97.0959-4.32.0959h-4.26l-.132-.481c-.0604-.265-.181-.697-.24-.949-.469-1.82-.614-5.46-.301-7.65.156-1.14.457-2.58.613-2.99.0604-.168.589-.192 4.41-.192h4.33zm20.6.601c.324 2.78.156 9.44-.265 10.6l-.108.276h-7.8c-4.81 0-7.84-.048-7.89-.12-.0361-.0604-.156-.914-.253-1.89-.288-2.62-.156-7.56.253-9.87l.0722-.385h15.8zm13.2-.901c.949 3.56.949 7.69 0 11.3l-.144.505-4.41-.0242c-4.33-.0361-4.41-.0361-4.39-.276.0242-.133.0959-.733.156-1.32.313-2.61.265-7.96-.084-10.2l-.0722-.445h8.8zm-32.8 16.8c.517 2.2 1.71 5.53 2.81 7.85.36.757.601 1.38.541 1.38-.313 0-2.84-1.35-4.1-2.19-1.5-1.01-3.61-2.92-4.78-4.36-.721-.878-2.16-3.02-2.16-3.2 0-.0604 1.65-.108 3.77-.108h3.77zm18.1.36c-.962 3.15-2.39 6.25-4.32 9.35l-.661 1.08h-1.72c-1.19 0-1.77-.048-1.9-.156-.265-.217-1.27-1.95-2.18-3.75-1.14-2.28-2.01-4.54-2.8-7.31-.0604-.192.324-.204 6.91-.204h6.96zm12.7-.89c0 .181-1.47 2.36-2.16 3.2-1.63 2.01-4.26 4.21-6.53 5.47-.842.469-2.86 1.36-2.92 1.3-.0242-.0242.349-.878.842-1.9 1.06-2.2 1.81-4.2 2.48-6.43.265-.901.481-1.67.481-1.69 0-.0119 1.75-.0361 3.91-.0361 2.15 0 3.91.048 3.91.0959z" stroke-width=".00539"/><g transform="matrix(.178 0 0 .178 -90.4 -31.2)"><path d="m827 500c0-102-49-196-122-257l-40.9-233h-327l-40.8 233c-73.6 61.2-123 155-123 257s49 196 122 257l40.9 233h327l40.8-233c73.5-61.3 122-155 122-257zm-572 0c0-135 110-245 245-245 135 0 245 110 245 245 0 135-110 245-245 245s-245-110-245-245z"/></g></g></svg>
