<svg width="42.6mm" height="41.6mm" version="1.1" viewBox="0 0 42.6 41.6" xmlns="http://www.w3.org/2000/svg"><g fill="#fff"><path d="m21.3 0c-11.8 0-21.3 9.54-21.3 21.3 0 9.41 6.1 17.4 14.6 20.2 1.06.197 1.46-.462 1.46-1.02 0-.508-.0198-2.19-.0289-3.97-5.93 1.29-7.18-2.51-7.18-2.51-.969-2.46-2.37-3.12-2.37-3.12-1.93-1.32.146-1.3.146-1.3 2.14.15 3.27 2.2 3.27 2.2 1.9 3.26 4.98 2.31 6.2 1.77.192-1.38.743-2.32 1.35-2.85-4.73-.538-9.71-2.37-9.71-10.5 0-2.33.832-4.23 2.19-5.72-.221-.537-.95-2.7.207-5.64 0 0 1.79-.572 5.86 2.18 1.7-.472 3.52-.709 5.33-.717 1.81.0085 3.63.245 5.34.717 4.07-2.76 5.85-2.18 5.85-2.18 1.16 2.93.43 5.1.209 5.64 1.37 1.49 2.19 3.39 2.19 5.72 0 8.18-4.98 9.98-9.73 10.5.764.661 1.44 1.96 1.44 3.95 0 2.85-.0243 5.14-.0243 5.85 0 .567.383 1.23 1.46 1.02 8.46-2.82 14.6-10.8 14.6-20.2 0-11.8-9.54-21.3-21.3-21.3" fill-rule="evenodd"/><g><path d="m8.07 30.6c-.0469.106-.213.138-.365.0649-.155-.0695-.241-.214-.191-.32.0459-.109.212-.139.367-.0663.155.0695.243.215.189.321"/><path d="m8.93 31.5c-.102.0942-.301.0504-.435-.0984-.14-.149-.165-.347-.0624-.443.105-.0942.297-.0501.437.0984.14.15.167.347.0607.443"/><path d="m9.77 32.8c-.131.091-.344.006-.476-.183-.131-.19-.131-.417.0032-.508.132-.091.343-.009.476.179.13.193.13.42-.0032.513"/><path d="m10.9 34c-.117.129-.365.0942-.548-.0815-.186-.172-.238-.416-.121-.544.119-.129.369-.0928.552.0815.185.171.241.417.117.544"/><path d="m12.5 34.7c-.0519.167-.291.242-.532.171-.241-.073-.399-.268-.35-.437.0501-.168.291-.247.534-.171.241.0727.399.267.349.436"/><path d="m14.3 34.8c.006.176-.199.321-.452.325-.255.006-.461-.137-.464-.309 0-.177.2-.321.455-.326.253-.005.461.137.461.311"/><path d="m15.9 34.5c.0303.171-.146.347-.397.394-.247.0455-.476-.0607-.508-.23-.0307-.176.148-.352.395-.397.252-.0437.477.0593.509.234"/></g></g></svg>
